<svg xmlns="http://www.w3.org/2000/svg" width="245" height="52" fill="none" viewBox="0 0 245 52"><path fill="currentColor" d="m65.689 26.07 4.945.023c3.804 0 6.266-1.723 6.266-5.258 0-3.223-1.991-5.236-6.266-5.236h-8.235V31.91h3.29zm0-7.874h4.61c2.035 0 3.289.872 3.289 2.752 0 1.722-1.052 2.774-3.29 2.774l-4.61-.022zM81.73 25.758h5.706c2.149 0 2.686.85 2.686 2.372v3.782h3.29v-4.25c0-1.88-.762-2.908-2.574-3.223v-.157c1.925-.493 2.977-2.036 2.977-3.982 0-3.379-2.484-4.7-5.906-4.7h-9.465v16.312h3.29V25.76zm0-7.63h5.549c1.902 0 3.198.671 3.198 2.529 0 1.59-.828 2.686-3.198 2.686h-5.55zM103.721 32.112c5.616 0 9.041-3.311 9.041-8.368 0-5.056-3.401-8.345-9.041-8.345s-9.084 3.312-9.084 8.346 3.4 8.367 9.084 8.367m0-14.074c3.469 0 5.707 2.058 5.707 5.706 0 3.65-2.215 5.73-5.707 5.73s-5.75-2.058-5.75-5.73c0-3.67 2.215-5.706 5.75-5.706M130.638 23.767c0-4.923-2.954-8.166-8.503-8.166h-7.675v16.311h7.675c5.214 0 8.503-2.932 8.503-8.143zm-12.889 5.549V18.173h3.782c3.492 0 5.773 1.723 5.773 5.527 0 3.491-1.857 5.616-5.773 5.616zM144.375 24.996c0 3.088-1.498 4.386-4.519 4.386-3.334 0-4.519-1.633-4.519-4.386V15.6h-3.245v9.42c0 5.056 3.065 7.093 7.764 7.093 5.192 0 7.786-2.483 7.786-7.093v-9.42h-3.267zM158.179 18.038c2.617 0 4.632 1.23 5.1 3.11h3.312c-.515-3.47-3.647-5.751-8.412-5.751-5.66 0-9.085 3.312-9.085 8.346s3.423 8.367 9.085 8.367c4.541 0 7.966-2.282 8.412-5.795h-3.289c-.424 1.924-2.44 3.154-5.123 3.154-3.514 0-5.751-2.058-5.751-5.728 0-3.672 2.237-5.707 5.751-5.707zM166.393 18.262h5.638V31.91h3.267V18.262h5.707V15.6h-14.612zM185.679 15.599h-3.289V31.91h3.289zM196.999 27.638l-.626 1.611h-.155l-.628-1.634-5.145-12.016h-3.625l7.338 16.311h4.251l7.362-16.311h-3.625zM210.199 15.599h-3.289V31.91h3.289zM211.631 18.262h5.637V31.91h3.268V18.262h5.706V15.6h-14.611zM240.534 15.599l-4.876 7.295h-.135l-4.81-7.295h-3.738l6.958 10.025v6.286h3.29v-6.286l7.003-10.025zM71.135 37.926c2.616 0 4.632 1.23 5.1 3.11h3.312c-.515-3.47-3.647-5.751-8.412-5.751-5.66 0-9.085 3.311-9.085 8.345s3.423 8.368 9.085 8.368c4.54 0 7.966-2.282 8.412-5.795h-3.29c-.426 1.924-2.439 3.154-5.124 3.154-3.514 0-5.751-2.058-5.751-5.729 0-3.67 2.237-5.706 5.75-5.706zM89.615 35.287c-5.66 0-9.085 3.311-9.085 8.345S83.93 52 89.615 52c5.684 0 9.04-3.312 9.04-8.368s-3.4-8.345-9.04-8.345m0 14.072c-3.514 0-5.751-2.058-5.751-5.729 0-3.67 2.215-5.706 5.75-5.706 3.537 0 5.707 2.057 5.707 5.706s-2.215 5.729-5.706 5.729M113.489 42.445l.111 5.125h-.136l-9.082-12.083h-4.029v16.311h3.334v-7.07l-.133-4.922h.177l9.063 11.992h3.96V35.486h-3.265zM118.751 51.798h3.289v-6.623h9.038v-2.506h-9.038v-4.541h9.935v-2.642h-13.224zM52 15.599 0 0l26 26H10.4l26 26V36.4H52z"/></svg>