<svg viewBox="0 0 22 22" fill="none" xmlns="http://www.w3.org/2000/svg">
<path d="M10.56 0C4.72725 0 0 4.75595 0 10.6241C0 15.9254 3.85646 20.319 8.90505 21.1192V13.6976H6.22586V10.6241H8.90505V8.28391C8.90505 5.62331 10.4787 4.15088 12.8919 4.15088C12.8935 4.15088 12.8948 4.15088 12.8964 4.15088C12.8968 4.15088 12.8972 4.15088 12.8976 4.15088C14.0547 4.15088 15.2642 4.36045 15.2642 4.36045V6.97415H13.9334C12.62 6.97415 12.215 7.79503 12.215 8.63334V10.6241H15.1429L14.6743 13.6976H12.215V21.12C17.2607 20.3224 21.12 15.9275 21.12 10.6241C21.12 4.75595 16.3927 0 10.56 0Z" fill="currentColor"/>
</svg>
