<svg viewBox="0 0 22 22" fill="none" xmlns="http://www.w3.org/2000/svg">
<path d="M10.56 7.04503C8.61394 7.04503 7.04503 8.62903 7.04503 10.56C7.04503 12.491 8.62903 14.075 10.56 14.075C12.491 14.075 14.075 12.491 14.075 10.56C14.075 8.62903 12.491 7.04503 10.56 7.04503ZM21.12 10.56C21.12 9.09669 21.12 7.66354 21.0446 6.20023C20.9691 4.51063 20.5769 3.00206 19.3399 1.78011C18.1029 0.543086 16.6094 0.150857 14.9198 0.0754285C13.4565 -7.19343e-08 12.0233 0 10.56 0C9.09669 0 7.66354 -7.19343e-08 6.20023 0.0754285C4.51063 0.150857 3.00206 0.543086 1.78011 1.78011C0.543086 3.01714 0.150857 4.51063 0.0754285 6.20023C-7.19343e-08 7.66354 0 9.09669 0 10.56C0 12.0233 -7.19343e-08 13.4565 0.0754285 14.9198C0.150857 16.6094 0.543086 18.1179 1.78011 19.3399C3.01714 20.5769 4.51063 20.9691 6.20023 21.0446C7.66354 21.12 9.09669 21.12 10.56 21.12C12.0233 21.12 13.4565 21.12 14.9198 21.0446C16.6094 20.9691 18.1179 20.5769 19.3399 19.3399C20.5769 18.1029 20.9691 16.6094 21.0446 14.9198C21.1351 13.4715 21.12 12.0233 21.12 10.56ZM10.56 15.9758C7.55794 15.9758 5.14423 13.5621 5.14423 10.56C5.14423 7.55794 7.55794 5.14423 10.56 5.14423C13.5621 5.14423 15.9758 7.55794 15.9758 10.56C15.9758 13.5621 13.5621 15.9758 10.56 15.9758ZM16.2021 6.18514C15.5081 6.18514 14.9349 5.62697 14.9349 4.91794C14.9349 4.20891 15.493 3.65074 16.2021 3.65074C16.9111 3.65074 17.4693 4.20891 17.4693 4.91794C17.4731 5.08319 17.4429 5.24745 17.3806 5.40056C17.3184 5.55366 17.2253 5.69234 17.1072 5.808C16.9915 5.92608 16.8529 6.01915 16.6998 6.08143C16.5467 6.14371 16.3824 6.17388 16.2171 6.17006L16.2021 6.18514Z" fill="currentColor"/>
</svg>
