<svg xmlns="http://www.w3.org/2000/svg" fill="none" viewBox="0 0 194 247"><path fill="#dbd7d2" fill-rule="evenodd" d="M21.973 53.893C70.296 38.65 88.663 29.083 97 24.535c8.336 4.658 26.648 14.114 75.027 29.358 0 5.514 3.057 171.219-75.027 171.081S21.973 59.324 21.973 53.894M97 247c100.925.22 96.979-202.066 96.979-209.068C131.457 18.222 107.837 6.01 97 0 86.274 6.01 62.515 18.222.02 37.932.02 44.934-3.924 247.22 97 247" clip-rule="evenodd"/><path fill="#dbd7d2" fill-rule="evenodd" d="M97.967 181.473a17.32 17.32 0 0 1-12.174-5.014 17.05 17.05 0 0 1-5.054-12.077v-.552h-17.59v.552a34.4 34.4 0 0 0 10.208 24.406 34.96 34.96 0 0 0 24.61 10.108c9.23 0 18.082-3.636 24.61-10.108a34.4 34.4 0 0 0 10.208-24.406v-.552h-17.589v.552a17.05 17.05 0 0 1-5.064 12.087 17.33 17.33 0 0 1-12.193 5.004zM48.843 115.587l11.976 11.881 29.816-29.58L60.82 68.283 48.843 80.163 66.71 97.89zM107.146 115.587l11.948 11.881 29.844-29.579-29.844-29.607-11.948 11.882 17.867 17.725z" clip-rule="evenodd"/></svg>