<svg xmlns="http://www.w3.org/2000/svg" fill="none" viewBox="0 0 194 246"><path fill="#dbd7d2" fill-rule="evenodd" d="M98.15 181.083c-2.3 0-4.6-.38-6.517-1.139-1.916-.759-3.833-2.278-5.75-3.796-1.533-1.519-2.683-3.417-3.833-5.695-.766-1.898-1.15-4.176-1.15-6.453v-.76H63.267v.38c0 9.111 3.834 17.843 10.35 24.296 6.517 6.454 15.333 10.25 24.533 10.25s18.016-3.796 24.533-10.25c6.516-6.453 10.349-15.185 10.349-24.296v-.38H115.4v.38c0 2.278-.384 4.556-1.15 6.454-.767 1.898-2.3 3.796-3.834 5.694-1.533 1.898-3.45 2.658-5.75 3.796-1.916.76-4.216 1.519-6.516 1.519M64.418 72.889c-4.984 0-9.967 1.518-13.8 4.176-4.217 2.657-7.283 6.453-9.2 11.009-1.916 4.555-2.3 9.49-1.533 14.426 1.15 4.935 3.45 9.111 6.9 12.907 3.45 3.417 8.05 5.695 13.033 6.833 4.983 1.139 9.966.38 14.566-1.518s8.433-4.935 11.116-9.111c2.684-4.176 4.217-8.732 4.217-13.667 0-3.416-.767-6.454-1.917-9.49s-3.066-5.695-5.366-7.973-4.983-4.176-8.05-5.314c-3.45-1.899-6.517-2.278-9.966-2.278m-8.05 24.676q0-2.278 1.15-4.556c.766-1.139 2.3-2.278 3.45-3.037 1.533-.76 3.066-.76 4.6-.38s3.066 1.14 4.216 2.278c1.15 1.14 1.917 2.658 2.3 4.176s0 3.037-.383 4.556c-.767 1.518-1.534 2.657-3.067 3.416-1.15.76-2.683 1.519-4.6 1.519q-3.45 0-5.75-2.278a9.27 9.27 0 0 1-1.916-5.694m-34.5-43.658C70.169 38.722 88.568 29.231 97 24.676c8.433 4.555 26.833 14.046 75.131 29.231 0 5.315 3.067 170.833-75.131 170.454-78.198-.38-75.131-165.139-75.131-170.454M97 246c100.814.38 96.981-201.203 96.981-208.416C131.499 18.223 107.733 6.074 97 0 86.267 6.074 62.5 18.222.02 37.963c0 6.833-3.834 208.416 96.98 208.036m8.05-157.545v16.703h48.682V88.454z" clip-rule="evenodd"/></svg>